<svg width="360" height="170" viewBox="0 0 360 170" fill="none" xmlns="http://www.w3.org/2000/svg">
<path d="M177.778 96.4645V72.5582H181.835V96.4645H177.778ZM167.854 86.5398V82.483H191.76V86.5398H167.854Z" fill="url(#paint0_linear_7_13)"/>
<g clip-path="url(#clip0_7_13)">
<g clip-path="url(#clip1_7_13)">
<path d="M267.307 130.999C273.563 130.999 315 132.298 315 84.248C315 35.4718 271.797 39.0241 271.676 39.0342H240.862V79.998H230V90.0331H240.861V124.002L246 130.999H267.307ZM258.217 90.0331H277.343V79.999H258.217V56.0342H270.97C274.248 56.0341 297.869 55.6647 297.832 83.9169C297.795 112.17 274.921 114.001 270.374 114.001H258.217V90.0331Z" fill="#B9A032"/>
<path fill-rule="evenodd" clip-rule="evenodd" d="M272 10.0023C272.753 10.0023 273.45 10.3976 273.837 11.043L277.638 17.3767C278.317 17.4325 278.993 17.4977 279.666 17.5734L284.627 12.1061C285.133 11.5486 285.893 11.2966 286.632 11.4434C287.37 11.5902 287.977 12.1145 288.23 12.8231L290.715 19.7595C291.374 19.9483 292.029 20.15 292.679 20.358L298.606 15.9691C299.21 15.5213 300.006 15.4231 300.701 15.711C301.396 15.9989 301.889 16.6311 302 17.3753L303.085 24.6702C303.692 24.9834 304.292 25.3076 304.888 25.6384L311.562 22.4869C312.242 22.1655 313.041 22.2239 313.667 22.6418C314.293 23.0599 314.654 23.7762 314.617 24.5279L314.257 31.9093C314.786 32.331 315.308 32.7614 315.824 33.1984L322.997 31.4057C323.728 31.2232 324.501 31.4371 325.033 31.9693C325.565 32.5016 325.779 33.2745 325.597 34.0048L323.802 41.1769C324.239 41.6929 324.67 42.2146 325.092 42.7436L332.474 42.3851C333.226 42.3486 333.942 42.7093 334.36 43.3351C334.778 43.9609 334.837 44.7599 334.515 45.4403L331.362 52.113C331.693 52.7088 332.017 53.3089 332.331 53.9155L339.627 55.0023C340.371 55.1132 341.003 55.6059 341.291 56.3011C341.579 56.9963 341.481 57.7918 341.033 58.3965L336.643 64.3215C336.851 64.9724 337.053 65.6265 337.241 66.2857L344.179 68.7718C344.888 69.0257 345.412 69.6323 345.559 70.3706C345.706 71.1088 345.454 71.8696 344.896 72.3753L339.427 77.3349C339.503 78.0081 339.568 78.6843 339.624 79.3633L345.959 83.1649C346.605 83.5522 347 84.2496 347 85.0023C347 85.755 346.605 86.4523 345.959 86.8396L339.624 90.6398C339.568 91.3189 339.503 91.9951 339.427 92.6683L344.896 97.6292C345.454 98.1349 345.706 98.8957 345.559 99.634C345.412 100.372 344.888 100.979 344.179 101.233L337.241 103.717C337.053 104.377 336.851 105.031 336.643 105.682L341.033 111.608C341.481 112.213 341.579 113.008 341.291 113.703C341.003 114.399 340.371 114.891 339.627 115.002L332.331 116.088C332.017 116.694 331.693 117.294 331.362 117.89L334.515 124.564C334.837 125.245 334.778 126.044 334.36 126.669C333.942 127.295 333.226 127.656 332.474 127.619L325.092 127.26C324.67 127.789 324.239 128.31 323.802 128.826L325.597 136C325.779 136.73 325.565 137.503 325.033 138.035C324.501 138.567 323.728 138.781 322.997 138.599L315.824 136.805C315.308 137.242 314.786 137.672 314.257 138.094L314.617 145.477C314.654 146.228 314.293 146.945 313.667 147.363C313.041 147.781 312.242 147.839 311.562 147.518L304.888 144.365C304.292 144.696 303.692 145.02 303.085 145.333L302 152.629C301.889 153.373 301.396 154.006 300.701 154.294C300.006 154.581 299.21 154.483 298.606 154.035L292.679 149.645C292.029 149.853 291.374 150.055 290.715 150.244L288.23 157.181C287.977 157.89 287.37 158.414 286.632 158.561C285.893 158.708 285.133 158.456 284.627 157.898L279.666 152.43C278.993 152.505 278.317 152.571 277.638 152.626L273.837 158.962C273.45 159.607 272.753 160.002 272 160.002C271.247 160.002 270.55 159.607 270.163 158.962L266.361 152.626C265.682 152.571 265.006 152.505 264.333 152.43L259.373 157.898C258.867 158.456 258.107 158.708 257.368 158.561C256.63 158.414 256.023 157.89 255.77 157.181L253.283 150.244C252.624 150.055 251.97 149.853 251.319 149.645L245.394 154.035C244.79 154.483 243.994 154.581 243.299 154.294C242.604 154.006 242.111 153.373 242 152.629L240.913 145.333C240.307 145.02 239.707 144.696 239.111 144.365L232.438 147.518C231.758 147.839 230.959 147.781 230.333 147.363C229.707 146.945 229.346 146.228 229.383 145.477L229.741 138.094C229.212 137.672 228.691 137.242 228.175 136.805L221.002 138.599C220.272 138.781 219.499 138.567 218.967 138.035C218.435 137.503 218.221 136.73 218.403 136L220.196 128.826C219.759 128.31 219.329 127.789 218.907 127.26L211.526 127.619C210.774 127.656 210.058 127.295 209.639 126.669C209.222 126.044 209.163 125.245 209.485 124.564L212.636 117.89C212.305 117.294 211.981 116.694 211.668 116.088L204.373 115.002C203.629 114.891 202.997 114.399 202.709 113.703C202.421 113.008 202.519 112.213 202.967 111.608L207.356 105.682C207.148 105.031 206.946 104.377 206.757 103.717L199.821 101.233C199.112 100.979 198.588 100.372 198.441 99.634C198.294 98.8957 198.546 98.1349 199.104 97.6292L204.571 92.6683C204.495 91.9951 204.43 91.3188 204.374 90.6398L198.041 86.8396C197.395 86.4523 197 85.755 197 85.0023C197 84.2496 197.395 83.5522 198.041 83.1649L204.374 79.3633C204.43 78.6843 204.495 78.0081 204.571 77.3349L199.104 72.3753C198.546 71.8696 198.294 71.1088 198.441 70.3706C198.588 69.6323 199.112 69.0257 199.821 68.7718L206.757 66.2857C206.946 65.6265 207.148 64.9723 207.356 64.3215L202.967 58.3965C202.519 57.7918 202.421 56.9963 202.709 56.3011C202.997 55.6059 203.629 55.1132 204.373 55.0023L211.668 53.9155C211.981 53.3089 212.305 52.7088 212.636 52.113L209.485 45.4403C209.163 44.7599 209.222 43.9609 209.639 43.3351C210.058 42.7093 210.774 42.3486 211.526 42.3851L218.907 42.7436C219.329 42.2146 219.759 41.6929 220.196 41.1769L218.403 34.0048C218.221 33.2745 218.435 32.5016 218.967 31.9693C219.499 31.4371 220.272 31.2232 221.002 31.4057L228.175 33.1984C228.691 32.7614 229.212 32.331 229.741 31.9093L229.383 24.5279C229.346 23.7762 229.707 23.0599 230.333 22.6418C230.959 22.2239 231.758 22.1655 232.438 22.4869L239.111 25.6384C239.707 25.3076 240.307 24.9834 240.913 24.6702L242 17.3753C242.111 16.6311 242.604 15.9989 243.299 15.711C243.994 15.4231 244.79 15.5213 245.394 15.9691L251.319 20.358C251.97 20.15 252.624 19.9483 253.283 19.7595L255.77 12.8231C256.023 12.1145 256.63 11.5902 257.368 11.4434C258.107 11.2966 258.867 11.5486 259.373 12.1061L264.333 17.5734C265.006 17.4977 265.682 17.4326 266.361 17.3767L270.163 11.043C270.55 10.3976 271.247 10.0023 272 10.0023ZM275.03 38.0324C273.356 39.7061 270.644 39.7061 268.97 38.0324L261.873 30.9356C245.39 34.0036 231.491 44.4203 223.708 58.6602L228.265 67.6055C229.34 69.7144 228.502 72.2954 226.393 73.37L217.452 77.925C217.154 80.2421 217 82.6042 217 85.0023C217 99.6365 222.717 112.934 232.038 122.788L241.94 121.22C244.278 120.85 246.473 122.445 246.844 124.783L248.413 134.698C255.562 138.097 263.558 140.002 272 140.002C280.442 140.002 288.437 138.097 295.585 134.698L297.156 124.783C297.527 122.445 299.722 120.85 302.06 121.22L311.961 122.788C321.282 112.934 327 99.6369 327 85.0023C327 82.6041 326.844 80.2421 326.547 77.925L317.607 73.37C315.498 72.2954 314.66 69.7144 315.735 67.6055L320.291 58.6602C312.507 44.4202 298.609 34.0033 282.126 30.9356L275.03 38.0324ZM242.698 129.545C242.34 127.285 240.218 125.744 237.958 126.102C234.314 126.679 233.187 131.374 236.173 133.543C239.158 135.712 243.274 133.189 242.698 129.545ZM304.92 126.102C302.66 125.744 300.539 127.285 300.181 129.545C299.604 133.189 303.722 135.712 306.707 133.543C309.692 131.374 308.564 126.679 304.92 126.102ZM222.006 65.8602C220.33 62.5728 215.516 62.9521 214.376 66.4615C213.236 69.9711 216.908 73.1075 220.196 71.4322C222.234 70.3936 223.044 67.8985 222.006 65.8602ZM328.503 66.4615C327.362 62.9521 322.548 62.5727 320.873 65.8602C319.834 67.8984 320.644 70.3936 322.682 71.4322C325.97 73.1075 329.643 69.9711 328.503 66.4615ZM271.439 25.0023C267.749 25.0023 265.901 29.4646 268.511 32.074C270.129 33.691 272.751 33.6914 274.369 32.074C276.978 29.4646 275.129 25.0023 271.439 25.0023Z" fill="#B9A032"/>
</g>
</g>
<g clip-path="url(#clip2_7_13)">
<path d="M81.7525 10.2036C82.503 10.1409 83.2314 10.4771 83.6714 11.0883L87.9898 17.0883C88.6715 17.0875 89.3513 17.0963 90.0289 17.1157L94.521 11.2504C94.979 10.6523 95.7169 10.3374 96.4654 10.4223C97.2138 10.5073 97.8622 10.98 98.1744 11.6655L101.23 18.3754C101.903 18.5087 102.572 18.6558 103.239 18.809L108.784 13.9379C109.349 13.441 110.135 13.2772 110.852 13.5063C111.569 13.7356 112.114 14.3251 112.287 15.058L113.976 22.2426C114.607 22.5044 115.233 22.7778 115.855 23.058L122.249 19.3598C122.9 18.9826 123.702 18.9737 124.361 19.3383C125.02 19.7031 125.439 20.3875 125.465 21.1401L125.721 28.5317C126.284 28.9081 126.84 29.2942 127.391 29.687L134.396 27.3022C135.109 27.0593 135.898 27.2083 136.473 27.6948C137.048 28.1812 137.326 28.9339 137.205 29.6772L136.013 36.9799C136.492 37.458 136.965 37.9426 137.429 38.435L144.762 37.4623C145.509 37.3634 146.253 37.6633 146.722 38.2524C147.191 38.8417 147.316 39.634 147.052 40.3393L144.463 47.2563C144.843 47.8229 145.217 48.3952 145.58 48.9741L152.947 49.4496C153.698 49.4984 154.369 49.9376 154.714 50.6069C155.059 51.2762 155.028 52.0779 154.631 52.7182L150.747 58.9926C151.008 59.6244 151.264 60.26 151.507 60.9018L158.633 62.8032C159.361 62.9974 159.935 63.5586 160.143 64.2827C160.351 65.0066 160.163 65.7866 159.649 66.3373L154.608 71.7387C154.74 72.4038 154.861 73.073 154.973 73.7455L161.608 77.0092C162.284 77.3417 162.736 78.0047 162.798 78.7553C162.861 79.5059 162.525 80.2343 161.914 80.6743L155.913 84.9916C155.914 85.6735 155.905 86.354 155.885 87.0317L161.752 91.5229C162.351 91.9808 162.665 92.7189 162.581 93.4672C162.496 94.2157 162.023 94.8649 161.337 95.1772L154.626 98.2328C154.492 98.9061 154.345 99.5752 154.192 100.242L159.064 105.787C159.561 106.352 159.725 107.138 159.496 107.855C159.266 108.572 158.678 109.116 157.945 109.289L150.758 110.979C150.497 111.61 150.223 112.235 149.943 112.857L153.643 119.25C154.02 119.902 154.028 120.704 153.664 121.363C153.299 122.022 152.615 122.442 151.862 122.468L144.469 122.724C144.093 123.287 143.707 123.843 143.314 124.394L145.701 131.399C145.943 132.112 145.794 132.9 145.308 133.475C144.822 134.05 144.068 134.329 143.325 134.207L136.021 133.015C135.543 133.494 135.058 133.967 134.566 134.431L135.541 141.764C135.64 142.511 135.339 143.256 134.75 143.725C134.16 144.194 133.369 144.318 132.664 144.054L125.745 141.466C125.178 141.846 124.607 142.219 124.028 142.581L123.552 149.949C123.504 150.7 123.065 151.372 122.396 151.717C121.727 152.062 120.925 152.03 120.285 151.634L114.008 147.749C113.377 148.011 112.741 148.267 112.099 148.51L110.2 155.636C110.006 156.364 109.443 156.937 108.719 157.145C107.995 157.353 107.216 157.165 106.666 156.651L101.262 151.611C100.597 151.742 99.928 151.863 99.2554 151.975L95.9927 158.61C95.6603 159.286 94.9982 159.738 94.2476 159.801C93.4971 159.864 92.7687 159.528 92.3287 158.916L88.0093 152.914C87.3275 152.915 86.647 152.907 85.9693 152.887L81.4791 158.754C81.0211 159.352 80.2832 159.667 79.5347 159.582C78.7863 159.497 78.138 159.025 77.8257 158.339L74.7681 151.627C74.095 151.494 73.4257 151.348 72.7593 151.195L67.2164 156.067C66.6507 156.564 65.8652 156.728 65.148 156.498C64.4307 156.269 63.8861 155.68 63.7134 154.947L62.022 147.76C61.391 147.498 60.7657 147.225 60.1441 146.945L53.7515 150.645C53.0997 151.022 52.2981 151.031 51.6392 150.666C50.9804 150.302 50.561 149.617 50.5347 148.865L50.2769 141.471C49.7143 141.095 49.1579 140.71 48.607 140.317L41.6041 142.704C40.8911 142.946 40.102 142.797 39.5269 142.311C38.9518 141.825 38.6742 141.071 38.7955 140.328L39.9859 133.024C39.5072 132.546 39.0344 132.061 38.5699 131.569L31.2378 132.542C30.4913 132.641 29.747 132.342 29.2779 131.752C28.809 131.163 28.6839 130.371 28.9478 129.665L31.5347 122.747C31.1553 122.18 30.7823 121.609 30.4195 121.03L23.0533 120.555C22.3019 120.506 21.6308 120.067 21.2857 119.398C20.9409 118.729 20.9726 117.928 21.3687 117.288L25.2515 111.011C24.9898 110.379 24.7349 109.744 24.4917 109.102L17.3667 107.202C16.6389 107.007 16.0649 106.446 15.857 105.722C15.6491 104.998 15.8373 104.218 16.3511 103.667L21.3912 98.2641C21.2596 97.5992 21.1381 96.9305 21.0259 96.2582L14.3921 92.9955C13.7162 92.6631 13.2644 92.0001 13.2017 91.2495C13.1391 90.4989 13.4751 89.7704 14.0865 89.3305L20.0865 85.0121C20.0856 84.3303 20.0944 83.6498 20.1138 82.9721L14.2476 78.4819C13.6496 78.024 13.3347 77.2859 13.4195 76.5375C13.5044 75.789 13.9771 75.1398 14.6626 74.8276L21.3736 71.7709C21.5069 71.0978 21.653 70.4285 21.8062 69.7621L16.9361 64.2182C16.4392 63.6525 16.2752 62.8671 16.5044 62.1498C16.7338 61.4328 17.3226 60.889 18.0552 60.7162L25.2408 59.0248C25.5026 58.3938 25.7759 57.7677 26.0562 57.1459L22.357 50.7543C21.9798 50.1026 21.972 49.3009 22.3365 48.642C22.7014 47.9831 23.3855 47.5628 24.1382 47.5366L31.5298 47.2797C31.9063 46.717 32.2923 46.1608 32.6851 45.6098L30.2994 38.6059C30.0567 37.893 30.2057 37.1048 30.6919 36.5297C31.1784 35.9546 31.9319 35.6761 32.6753 35.7973L39.9771 36.9877C40.4553 36.509 40.9397 36.0362 41.4322 35.5717L40.4595 28.2407C40.3605 27.494 40.6613 26.7489 41.2505 26.2797C41.8397 25.8112 42.6314 25.6869 43.3365 25.9506L50.2544 28.5375C50.821 28.158 51.3924 27.7842 51.9712 27.4213L52.4478 20.0561C52.4965 19.3046 52.9347 18.6326 53.6041 18.2875C54.2734 17.9426 55.0751 17.9744 55.7154 18.3705L61.9898 22.2543C62.6216 21.9926 63.2572 21.7368 63.899 21.4936L65.8003 14.3686C65.9946 13.641 66.5561 13.0678 67.2798 12.8598C68.0038 12.6519 68.7837 12.8401 69.3345 13.3539L74.7369 18.393C75.4017 18.2615 76.0704 18.14 76.7427 18.0278L80.0074 11.395C80.3398 10.719 81.0019 10.2663 81.7525 10.2036ZM106.434 51.9438C118.308 56.0132 126.991 62.1132 125.285 73.4614L125.289 73.4623C124.054 81.7694 119.426 85.7915 113.281 87.2016C121.718 91.5723 126.011 98.2744 121.921 109.894C116.846 124.327 104.787 125.545 88.7496 122.525L84.3912 139.932C87.0801 140.106 89.8155 140.086 92.5816 139.855C101 139.152 108.816 136.585 115.662 132.6L116.403 122.581C116.577 120.219 118.634 118.445 120.997 118.62L131.002 119.358C139.476 108.754 144.071 95.0163 142.852 80.4213C142.652 78.0298 142.301 75.6868 141.811 73.4008L132.515 69.602C130.323 68.7057 129.273 66.2018 130.169 64.0092L133.967 54.7084C128.256 46.0584 120.19 39.1696 110.761 34.8784L106.434 51.9438ZM67.9517 133.823L68.6158 136.53C70.6188 137.285 72.6752 137.924 74.775 138.444L79.2945 120.402C76.8564 119.799 74.3657 119.159 71.7994 118.466L67.9517 133.823ZM62.4869 131.866C61.9416 129.642 59.6967 128.282 57.4732 128.827C53.8868 129.706 53.1544 134.482 56.3121 136.397C59.4701 138.311 63.3659 135.452 62.4869 131.866ZM124.255 123.249C121.972 123.081 119.985 124.795 119.816 127.078C119.544 130.76 123.86 132.933 126.657 130.522C129.453 128.11 127.938 123.522 124.255 123.249ZM73.397 31.9243C57.214 36.357 44.22 47.9035 37.6431 62.7534L42.9341 71.2953C44.1813 73.309 43.56 75.9533 41.5464 77.2006L33.0093 82.4877C32.9055 84.8233 32.9483 87.1919 33.148 89.5834C34.367 104.178 41.1762 116.965 51.2925 126.016L60.4927 123.76L62.4429 115.969C60.2458 115.41 58.0145 114.817 55.7378 114.248L43.4996 111.212L48.1685 100.501C48.1685 100.501 55.0853 102.331 55.0044 102.199C57.6669 102.855 58.8486 101.126 59.314 99.975L65.4634 75.4428C65.8098 75.5253 66.1438 75.6104 66.4576 75.6879C66.0822 75.5379 65.7423 75.4417 65.48 75.3754L69.8677 57.8627C69.9821 55.8745 69.2933 53.3661 65.4849 52.4203C65.6315 52.3227 58.6973 50.7406 58.6548 50.7309L61.1568 40.7368L74.1255 43.9584L74.1148 44.0073C76.0643 44.4899 78.0738 44.9481 80.1197 45.4116L81.7554 38.8871C81.515 38.7535 81.2839 38.595 81.066 38.4106L73.397 31.9243ZM74.8531 107.205C81.2286 108.78 100.891 115.061 103.797 103.441C106.834 91.3227 86.392 88.1894 80.0171 86.6059L74.8531 107.205ZM82.3794 77.1762C87.6884 78.4929 104.054 83.8621 106.706 73.2924C109.466 62.2678 92.371 59.8103 87.0621 58.4936L82.3794 77.1762ZM36.5455 70.0766C34.6006 66.9377 29.831 67.7163 28.9859 71.311C28.1412 74.906 32.0651 77.7283 35.2046 75.7836C37.1507 74.5781 37.7507 72.0228 36.5455 70.0766ZM142.806 61.8051C141.377 58.4002 136.544 58.4224 135.147 61.8403C134.281 63.9595 135.297 66.3814 137.416 67.2475C140.834 68.6444 144.236 65.2102 142.806 61.8051ZM89.5962 47.4418C92.1198 48.015 94.659 48.5939 97.1314 49.2075L101.585 31.6498C99.0837 31.0133 96.5192 30.55 93.9058 30.2709L89.5962 47.4418ZM82.4429 25.2104C78.7627 25.5179 77.2921 30.1222 80.1119 32.5073C81.8598 33.9847 84.4754 33.7665 85.9537 32.019C88.3387 29.1992 86.1232 24.9031 82.4429 25.2104Z" fill="#F7931A"/>
</g>
<defs>
<linearGradient id="paint0_linear_7_13" x1="166" y1="71.5" x2="199.5" y2="94.5" gradientUnits="userSpaceOnUse">
<stop stop-color="#F7931A"/>
<stop offset="1" stop-color="#B9A032"/>
</linearGradient>
<clipPath id="clip0_7_13">
<rect width="150" height="150" fill="white" transform="translate(197 10.0023)"/>
</clipPath>
<clipPath id="clip1_7_13">
<rect width="150" height="150" fill="white" transform="translate(197 10.0023)"/>
</clipPath>
<clipPath id="clip2_7_13">
<rect width="150" height="150" fill="white" transform="translate(13 10.0023)"/>
</clipPath>
</defs>
</svg>
