<svg width="150" height="150" viewBox="0 0 150 150" fill="none" xmlns="http://www.w3.org/2000/svg">
<g clip-path="url(#clip0_7_51)">
<g clip-path="url(#clip1_7_51)">
<path d="M70.3066 120.997C76.563 120.997 118 122.296 118 74.2457C118 25.4695 74.797 29.0219 74.6758 29.032H43.8623V69.9957H33V80.0309H43.8613V114L49 120.997H70.3066ZM61.2168 80.0309H80.3428V69.9967H61.2168V46.0319H73.9697C77.2476 46.0319 100.869 45.6624 100.832 73.9147C100.795 102.167 77.9214 103.999 73.374 103.999H61.2168V80.0309Z" fill="#B9A032"/>
<path fill-rule="evenodd" clip-rule="evenodd" d="M75 0C75.7527 0 76.4501 0.395296 76.8373 1.04074L80.6376 7.37444C81.3166 7.43029 81.9928 7.49546 82.666 7.57115L87.627 2.10379C88.1327 1.54633 88.8935 1.29431 89.6317 1.44113C90.3699 1.58797 90.9766 2.11228 91.2305 2.82087L93.7151 9.75726C94.3744 9.94602 95.0285 10.1477 95.6794 10.3557L101.606 5.9668C102.21 5.51902 103.006 5.42083 103.701 5.70871C104.396 5.99667 104.889 6.62883 105 7.37305L106.085 14.668C106.692 14.9812 107.292 15.3054 107.888 15.6362L114.562 12.4847C115.242 12.1632 116.041 12.2217 116.667 12.6395C117.293 13.0577 117.654 13.7739 117.617 14.5257L117.257 21.9071C117.786 22.3287 118.308 22.7592 118.824 23.1962L125.998 21.4035C126.728 21.2209 127.501 21.4348 128.033 21.9671C128.565 22.4993 128.779 23.2723 128.597 24.0025L126.802 31.1747C127.239 31.6907 127.67 32.2123 128.092 32.7414L135.474 32.3828C136.226 32.3463 136.942 32.7071 137.361 33.3329C137.778 33.9586 137.837 34.7577 137.515 35.4381L134.362 42.1108C134.693 42.7066 135.017 43.3066 135.331 43.9132L142.627 45C143.371 45.111 144.003 45.6036 144.291 46.2988C144.579 46.994 144.481 47.7896 144.033 48.3943L139.643 54.3192C139.851 54.9701 140.053 55.6242 140.241 56.2835L147.179 58.7695C147.888 59.0234 148.412 59.6301 148.559 60.3683C148.706 61.1065 148.454 61.8673 147.896 62.3731L142.427 67.3326C142.503 68.0058 142.568 68.682 142.624 69.3611L148.959 73.1627C149.605 73.5499 150 74.2473 150 75C150 75.7527 149.605 76.4501 148.959 76.8373L142.624 80.6376C142.568 81.3166 142.503 81.9928 142.427 82.666L147.896 87.627C148.454 88.1327 148.706 88.8935 148.559 89.6317C148.412 90.3699 147.888 90.9766 147.179 91.2305L140.241 93.7151C140.053 94.3744 139.851 95.0285 139.643 95.6794L144.033 101.606C144.481 102.21 144.579 103.006 144.291 103.701C144.003 104.396 143.371 104.889 142.627 105L135.331 106.085C135.017 106.692 134.693 107.292 134.362 107.888L137.515 114.562C137.837 115.242 137.778 116.041 137.361 116.667C136.942 117.293 136.226 117.654 135.474 117.617L128.092 117.257C127.67 117.786 127.239 118.308 126.802 118.824L128.597 125.998C128.779 126.728 128.565 127.501 128.033 128.033C127.501 128.565 126.728 128.779 125.998 128.597L118.824 126.802C118.308 127.239 117.786 127.67 117.257 128.092L117.617 135.474C117.654 136.226 117.293 136.942 116.667 137.361C116.041 137.778 115.242 137.837 114.562 137.515L107.888 134.362C107.292 134.693 106.692 135.017 106.085 135.331L105 142.627C104.889 143.371 104.396 144.003 103.701 144.291C103.006 144.579 102.21 144.481 101.606 144.033L95.6794 139.643C95.0285 139.851 94.3744 140.053 93.7151 140.241L91.2305 147.179C90.9766 147.888 90.3699 148.412 89.6317 148.559C88.8935 148.706 88.1327 148.454 87.627 147.896L82.666 142.427C81.9928 142.503 81.3166 142.568 80.6376 142.624L76.8373 148.959C76.4501 149.605 75.7527 150 75 150C74.2473 150 73.5499 149.605 73.1627 148.959L69.3611 142.624C68.682 142.568 68.0058 142.503 67.3326 142.427L62.3731 147.896C61.8673 148.454 61.1065 148.706 60.3683 148.559C59.6301 148.412 59.0234 147.888 58.7695 147.179L56.2835 140.241C55.6242 140.053 54.9701 139.851 54.3192 139.643L48.3943 144.033C47.7896 144.481 46.994 144.579 46.2988 144.291C45.6036 144.003 45.111 143.371 45 142.627L43.9132 135.331C43.3066 135.017 42.7066 134.693 42.1108 134.362L35.4381 137.515C34.7577 137.837 33.9586 137.778 33.3329 137.361C32.7071 136.942 32.3463 136.226 32.3828 135.474L32.7414 128.092C32.2123 127.67 31.6907 127.239 31.1747 126.802L24.0025 128.597C23.2723 128.779 22.4993 128.565 21.9671 128.033C21.4348 127.501 21.2209 126.728 21.4035 125.998L23.1962 118.824C22.7592 118.308 22.3287 117.786 21.9071 117.257L14.5257 117.617C13.7739 117.654 13.0577 117.293 12.6395 116.667C12.2217 116.041 12.1632 115.242 12.4847 114.562L15.6362 107.888C15.3054 107.292 14.9812 106.692 14.668 106.085L7.37305 105C6.62883 104.889 5.99667 104.396 5.70871 103.701C5.42083 103.006 5.51902 102.21 5.9668 101.606L10.3557 95.6794C10.1477 95.0285 9.94602 94.3744 9.75726 93.7151L2.82087 91.2305C2.11228 90.9766 1.58797 90.3699 1.44113 89.6317C1.29431 88.8935 1.54633 88.1327 2.10379 87.627L7.57115 82.666C7.49546 81.9928 7.43029 81.3166 7.37444 80.6376L1.04074 76.8373C0.395296 76.4501 0 75.7527 0 75C0 74.2473 0.395296 73.5499 1.04074 73.1627L7.37444 69.3611C7.4303 68.682 7.49544 68.0058 7.57115 67.3326L2.10379 62.3731C1.54633 61.8673 1.29431 61.1065 1.44113 60.3683C1.58797 59.6301 2.11228 59.0234 2.82087 58.7695L9.75726 56.2835C9.94603 55.6242 10.1477 54.9701 10.3557 54.3192L5.9668 48.3943C5.51902 47.7896 5.42083 46.994 5.70871 46.2988C5.99667 45.6036 6.62883 45.111 7.37305 45L14.668 43.9132C14.9812 43.3066 15.3054 42.7066 15.6362 42.1108L12.4847 35.4381C12.1632 34.7577 12.2217 33.9586 12.6395 33.3329C13.0577 32.7071 13.7739 32.3463 14.5257 32.3828L21.9071 32.7414C22.3287 32.2123 22.7592 31.6907 23.1962 31.1747L21.4035 24.0025C21.2209 23.2723 21.4348 22.4993 21.9671 21.9671C22.4993 21.4348 23.2723 21.2209 24.0025 21.4035L31.1747 23.1962C31.6907 22.7592 32.2123 22.3287 32.7414 21.9071L32.3828 14.5257C32.3463 13.7739 32.7071 13.0577 33.3329 12.6395C33.9586 12.2217 34.7577 12.1632 35.4381 12.4847L42.1108 15.6362C42.7066 15.3054 43.3066 14.9812 43.9132 14.668L45 7.37305C45.111 6.62883 45.6036 5.99667 46.2988 5.70871C46.994 5.42083 47.7896 5.51902 48.3943 5.9668L54.3192 10.3557C54.9701 10.1477 55.6242 9.94603 56.2835 9.75726L58.7695 2.82087C59.0234 2.11228 59.6301 1.58797 60.3683 1.44113C61.1065 1.29431 61.8673 1.54633 62.3731 2.10379L67.3326 7.57115C68.0058 7.49544 68.682 7.4303 69.3611 7.37444L73.1627 1.04074C73.5499 0.395296 74.2473 0 75 0ZM78.0301 28.0301C76.3565 29.7038 73.6435 29.7038 71.9699 28.0301L64.8731 20.9333C48.3901 24.0014 34.4915 34.418 26.7076 48.6579L31.2653 57.6032C32.3399 59.7121 31.5019 62.2931 29.3931 63.3678L20.452 67.9227C20.1543 70.2398 20 72.6019 20 75C20 89.6343 25.7171 102.932 35.0377 112.786L44.94 111.218C47.2778 110.848 49.4735 112.443 49.8438 114.781L51.4132 124.696C58.5617 128.095 66.5579 130 75 130C83.4416 130 91.4372 128.094 98.5854 124.696L100.156 114.781C100.527 112.443 102.722 110.848 105.06 111.218L114.961 112.786C124.282 102.932 130 89.6346 130 75C130 72.6019 129.844 70.2399 129.547 67.9227L120.607 63.3678C118.498 62.2931 117.66 59.7121 118.735 57.6032L123.291 48.6579C115.507 34.418 101.609 24.001 85.1256 20.9333L78.0301 28.0301ZM45.6975 119.542C45.3397 117.283 43.2179 115.741 40.9584 116.099C37.314 116.677 36.1874 121.372 39.1727 123.541C42.1581 125.709 46.2745 123.187 45.6975 119.542ZM107.92 116.099C105.66 115.741 103.539 117.283 103.181 119.542C102.604 123.187 106.722 125.71 109.707 123.541C112.692 121.372 111.564 116.677 107.92 116.099ZM25.0056 55.858C23.33 52.5705 18.5161 52.9498 17.3758 56.4593C16.2358 59.9688 19.9082 63.1053 23.1962 61.43C25.2343 60.3914 26.0441 57.8962 25.0056 55.858ZM131.503 56.4593C130.362 52.9498 125.548 52.5705 123.873 55.858C122.834 57.8962 123.644 60.3913 125.682 61.43C128.97 63.1053 132.643 59.9688 131.503 56.4593ZM74.4392 15C70.749 15.0001 68.9015 19.4623 71.5109 22.0717C73.1285 23.6887 75.7515 23.6891 77.3689 22.0717C79.9783 19.4623 78.1294 15 74.4392 15Z" fill="#B9A032"/>
</g>
</g>
<defs>
<clipPath id="clip0_7_51">
<rect width="150" height="150" fill="white"/>
</clipPath>
<clipPath id="clip1_7_51">
<rect width="150" height="150" fill="white"/>
</clipPath>
</defs>
</svg>
